# xmcd
#
# Track frame offsets:
#	150
#	35390
#	72527
#	90491
#	108776
#
# Disc length: 1714 seconds
#
# Revision: 0
# Processed by: cddbd v1.5.2PL0 Copyright (c) Steve Scherf et al.
# Submitted via: EZCDAudioConverter 2.1.7.1
#
DISCID=3706b005
DTITLE=Farm - Farm (1971)
DYEAR=1900
DGENRE=
TTITLE0=Jungle Song
TTITLE1=Let That Boy Boogie
TTITLE2=Sunshine In My Window
TTITLE3=Cottonfield Woman
TTITLE4=Statesboro Blues
EXTD=
EXTT0=
EXTT1=
EXTT2=
EXTT3=
EXTT4=
PLAYORDER=
